<svg width="1257" height="489" viewBox="0 0 1257 489" fill="none" xmlns="http://www.w3.org/2000/svg">
<path d="M1155.99 152.066C1155.8 153.645 1155.61 155.224 1155.32 156.851C1146.85 214.333 1127.3 269.624 1097.76 319.66H951.35C977.667 292.864 1081.73 217.453 1081.66 217.453C1080.2 217.453 981.04 273.868 938.479 300.089V214.223C1004.51 175.316 1079.38 153.921 1155.99 152.066Z" fill="#6DB49B"/>
<path d="M1253.12 136.994C1252.38 145.463 1251.52 153.741 1250.49 161.397C1247.89 181.527 1244.16 201.496 1239.32 221.209C1231 255.009 1219.42 287.924 1204.75 319.492H1122.41C1139.57 288.586 1153.18 255.83 1162.96 221.855C1168.81 201.579 1173.29 180.933 1176.38 160.057C1176.69 158.311 1176.93 156.492 1177.17 154.483L1180.04 130.079L1155.52 130.749C1091.97 132.26 1029.38 146.633 971.543 173.001C960.298 178.121 949.301 183.647 938.552 189.581V107.207C939.915 106.537 941.255 105.939 942.643 105.317C1010.15 74.7802 1083.2 58.3822 1157.29 57.1325H1167.84C1196.84 57.1352 1225.8 59.4473 1254.44 64.0468C1255.63 88.3646 1255.19 112.734 1253.12 136.994Z" fill="#6DB49B"/>
<path d="M1257 38.2798V42.7537C1227.49 37.9996 1197.65 35.5996 1167.76 35.5762H1156.78C1081.54 37.0092 1007.34 53.3798 938.479 83.737V38.2798C938.479 28.1273 942.512 18.3907 949.691 11.2119C956.869 4.03303 966.605 -6.08789e-07 976.757 -6.08789e-07H1218.67C1223.7 -0.00628936 1228.69 0.979205 1233.34 2.90013C1237.99 4.82105 1242.21 7.63972 1245.77 11.1949C1249.33 14.7502 1252.15 18.9722 1254.08 23.6197C1256.01 28.2671 1257 33.2488 1257 38.2798Z" fill="#6DB49B"/>
<path d="M1228.27 319.564C1239.92 293.14 1249.52 265.857 1256.98 237.957V319.564H1228.27Z" fill="#6DB49B"/>
<path d="M1084.34 340.905C1072.9 357.982 1060.31 374.265 1046.66 389.64C1030.25 408.206 1007.57 427.202 982.26 445.194C978.48 430.145 971.519 402.272 971.519 397.727C971.519 397.583 971.519 397.464 971.519 397.344L957.164 462.108C950.944 466.144 944.676 470.083 938.36 473.927V340.905H1084.34Z" fill="#B5A48C"/>
<path d="M1141.88 368.203L1181.16 364.878C1162.95 396.155 1141.68 425.55 1117.67 452.634C1106.41 465.394 1094.6 477.516 1082.24 489H954.557C959.916 485.674 965.251 482.325 970.538 478.88C993.648 477.229 1032.38 474.573 1037.38 474.669L998.217 459.883C1023.17 441.916 1045.75 422.776 1062.62 403.78C1080.06 384.163 1095.84 363.133 1109.8 340.905H1190.95C1171.09 352.174 1145.73 366.433 1141.88 368.203Z" fill="#B5A48C"/>
<path d="M1257 340.905V489H1112.86C1119.92 481.807 1126.85 474.39 1133.63 466.75C1160.1 436.903 1183.36 404.344 1203 369.615C1212.88 381.458 1233.6 406.531 1234.51 409.617L1218.55 340.905H1257Z" fill="#B5A48C"/>
<path d="M815.919 106.274H782.282V279.37H815.919V106.274Z" fill="#5B6670"/>
<path d="M520.253 106.279L496.468 130.065L520.253 153.85L544.037 130.065L520.253 106.279Z" fill="#5B6670"/>
<path d="M472.44 106.267L448.655 130.053L472.44 153.839L496.225 130.053L472.44 106.267Z" fill="#5B6670"/>
<path d="M207.347 106.274H173.71V279.37H207.347V106.274Z" fill="#5B6670"/>
<path d="M106.437 209.366V279.394C106.437 289.046 102.603 298.301 95.7791 305.126C88.955 311.95 79.6996 315.784 70.0489 315.784C60.3982 315.784 51.1428 311.95 44.3187 305.126C37.4946 298.301 33.6609 289.046 33.6609 279.394V209.366H0.000243976V279.394C-0.171763 288.701 1.51266 297.949 4.95509 306.597C8.39753 315.245 13.5289 323.121 20.0495 329.763C26.57 336.406 34.349 341.682 42.9318 345.284C51.5146 348.886 60.7291 350.741 70.0369 350.741C79.3448 350.741 88.5593 348.886 97.1421 345.284C105.725 341.682 113.504 336.406 120.024 329.763C126.545 323.121 131.676 315.245 135.119 306.597C138.561 297.949 140.246 288.701 140.074 279.394V106.274H106.437V209.366Z" fill="#5B6670"/>
<path d="M642.663 245.732C642.347 243.867 642.187 241.978 642.185 240.086C642.182 235.303 643.121 230.567 644.95 226.147C646.779 221.728 649.461 217.712 652.842 214.331C656.224 210.949 660.24 208.266 664.659 206.438C669.078 204.609 673.814 203.669 678.597 203.672H728.214V170.034H678.597C669.396 170.028 660.284 171.835 651.783 175.353C643.281 178.872 635.557 184.031 629.051 190.538C622.545 197.044 617.385 204.769 613.867 213.271C610.349 221.773 608.542 230.885 608.548 240.086C608.548 241.952 608.548 243.842 608.787 245.732H513.092V170.034H479.527V245.732H358.856V234.583C357.505 216.998 349.562 200.573 336.618 188.595C323.673 176.617 306.682 169.97 289.047 169.986H258.376V203.672H287.97C297.628 203.566 306.945 207.24 313.931 213.909C320.917 220.579 325.02 229.715 325.363 239.368C325.417 241.499 325.265 243.63 324.908 245.732H241.008V279.394H358.402V253.077C358.402 253.077 371.536 279.394 386.512 279.394H513.308V251.211C513.308 258.698 516.282 265.879 521.576 271.173C526.87 276.468 534.051 279.442 541.538 279.442H748.693V245.732H642.663Z" fill="#5B6670"/>
<path d="M604.791 340.259V370.07C604.791 371.768 604.145 372.749 602.901 373.108H596.873C596.272 372.855 595.773 372.41 595.452 371.843C595.132 371.276 595.009 370.619 595.102 369.974V350.212H585.054V369.902C585.134 370.527 584.996 371.159 584.666 371.695C584.335 372.231 583.83 372.636 583.236 372.845H582.71H572.279L575.748 359.423C575.961 358.595 576.129 357.757 576.25 356.911C576.368 356.215 576.432 355.511 576.442 354.806C576.518 353.712 576.204 352.627 575.557 351.743C574.79 351.01 573.81 350.54 572.758 350.403C572.021 350.216 571.268 350.103 570.509 350.068H541.513C540.746 350.098 539.984 350.21 539.24 350.403C538.18 350.535 537.19 351.005 536.417 351.743C535.74 352.613 535.415 353.707 535.508 354.806C535.509 355.511 535.565 356.215 535.676 356.911C535.795 357.676 536.011 358.538 536.202 359.423C536.394 360.308 536.728 361.481 537.063 362.605C537.398 363.729 537.661 364.998 537.949 366.122L538.834 369.639C539.121 370.811 539.408 371.888 539.647 372.845H528.403V359.614C528.57 357.35 528.088 355.084 527.015 353.083C526.515 352.334 525.854 351.707 525.08 351.248C524.306 350.788 523.438 350.508 522.542 350.427C521.848 350.284 521.082 350.212 520.149 350.116C519.216 350.021 518.355 350.116 517.398 350.116H503.474C502.302 350.116 501.25 350.116 500.317 350.116C499.514 350.179 498.716 350.283 497.924 350.427C497.07 350.53 496.249 350.824 495.524 351.288C494.8 351.752 494.189 352.374 493.738 353.107C492.745 355.126 492.291 357.368 492.422 359.614V369.735C492.501 370.359 492.364 370.992 492.033 371.528C491.702 372.063 491.198 372.469 490.604 372.677C490.168 372.749 489.729 372.789 489.288 372.797C488.546 372.797 483.259 372.797 483.259 372.797V349.997H459.551C458.33 349.997 457.278 349.997 456.393 349.997C455.59 350.054 454.791 350.157 454 350.308C453.131 350.393 452.294 350.679 451.555 351.144C450.815 351.61 450.195 352.241 449.742 352.987C448.768 355.012 448.323 357.251 448.45 359.495V372.653C448.435 373.937 448.547 375.22 448.785 376.481C448.931 377.464 449.29 378.403 449.837 379.233C450.279 379.978 450.905 380.596 451.656 381.027C452.481 381.504 453.378 381.843 454.311 382.032C456.018 382.226 457.737 382.306 459.455 382.271H491.369H501.202V377.486C501.202 377.486 504.671 382.271 507.781 382.271H583.906H593.691V377.486C594.344 378.659 595.227 379.687 596.288 380.51C597.349 381.332 598.565 381.931 599.863 382.271C603.058 382.467 606.264 382.339 609.433 381.888C610.292 381.712 611.106 381.361 611.825 380.86C612.489 380.388 613.03 379.765 613.404 379.041C613.841 378.184 614.139 377.264 614.289 376.314C614.482 375.087 614.578 373.847 614.576 372.606V340.259H604.791ZM473.211 373.204H463.043C460.651 373.204 459.263 372.773 458.976 371.984C458.718 371.414 458.603 370.79 458.641 370.165V362.844C458.593 362.247 458.593 361.647 458.641 361.05C458.687 360.705 458.847 360.384 459.096 360.141C459.416 359.949 459.776 359.834 460.149 359.806C460.627 359.806 461.273 359.806 462.086 359.806H473.091L473.211 373.204ZM518.307 373.204H504.264C503.725 372.967 503.261 372.586 502.924 372.103C502.578 371.483 502.412 370.779 502.446 370.07V362.892C502.388 362.516 502.411 362.131 502.513 361.764C502.616 361.397 502.795 361.057 503.04 360.765C503.284 360.472 503.588 360.236 503.931 360.071C504.274 359.905 504.649 359.815 505.03 359.806H516.752C517.342 360.057 517.832 360.496 518.148 361.053C518.463 361.611 518.587 362.257 518.499 362.892L518.307 373.204ZM564.719 363.179L563.068 369.448C562.962 370.128 562.711 370.777 562.331 371.351C561.951 371.924 561.452 372.41 560.867 372.773C559.939 373.167 558.93 373.331 557.925 373.252H553.81C552.812 373.337 551.809 373.172 550.891 372.773C550.332 372.47 549.856 372.035 549.504 371.505C549.081 370.887 548.795 370.185 548.666 369.448C548.403 368.443 548.14 367.39 547.853 366.337C547.566 365.285 547.279 364.184 546.992 363.179C546.513 360.954 546.992 359.854 548.81 359.854H562.805C564.504 359.854 565.198 360.954 564.623 363.179" fill="#5B6670"/>
<path d="M631.706 340.259H621.682V382.678H631.706V340.259Z" fill="#5B6670"/>
<path d="M735.943 333.952L730.073 339.822L735.943 345.692L741.813 339.822L735.943 333.952Z" fill="#5B6670"/>
<path d="M685.664 333.943L679.794 339.813L685.664 345.684L691.534 339.813L685.664 333.943Z" fill="#5B6670"/>
<path d="M589.535 333.947L583.665 339.817L589.535 345.687L595.405 339.817L589.535 333.947Z" fill="#5B6670"/>
<path d="M471.723 333.935L465.853 339.805L471.723 345.675L477.593 339.805L471.723 333.935Z" fill="#5B6670"/>
<path d="M460.86 333.959L454.99 339.83L460.86 345.7L466.73 339.83L460.86 333.959Z" fill="#5B6670"/>
<path d="M805.919 340.259V370.07C805.919 371.768 805.273 372.749 804.029 373.108H798.048L794.746 360.045C794.32 357.627 793.338 355.342 791.875 353.37C790.601 351.856 788.794 350.888 786.828 350.667C786.038 350.503 785.239 350.391 784.435 350.332C783.526 350.332 782.497 350.332 781.373 350.332H761.708V359.901H780.56C781.541 359.823 782.527 359.988 783.43 360.38C784.001 360.751 784.488 361.236 784.863 361.804C785.237 362.372 785.491 363.011 785.607 363.682C785.775 364.423 785.966 365.141 786.158 366.074C786.349 367.007 786.564 367.701 786.804 368.467C787.043 369.232 787.258 370.165 787.474 370.979L788.024 373.371H753.095V360.141C753.262 357.876 752.781 355.611 751.708 353.609C751.205 352.858 750.54 352.229 749.761 351.769C748.983 351.309 748.111 351.031 747.21 350.954C746.492 350.81 745.727 350.738 744.817 350.643C743.908 350.547 743.023 350.643 742.066 350.643H729.411C728.238 350.643 727.138 350.643 726.253 350.643C725.45 350.702 724.651 350.806 723.86 350.954C723.001 351.049 722.174 351.341 721.444 351.805C720.715 352.27 720.101 352.895 719.65 353.633C718.653 355.65 718.207 357.896 718.358 360.141V373.228H710.535V359.973C710.699 357.712 710.253 355.448 709.243 353.418C708.771 352.677 708.135 352.055 707.384 351.598C706.633 351.142 705.788 350.864 704.913 350.786C704.124 350.617 703.325 350.505 702.52 350.451C701.635 350.451 700.63 350.451 699.506 350.451H669.864V340.451H659.793V373.228H655.582V382.798H718.358V378.013C719.012 379.316 719.979 380.435 721.174 381.27C722.368 382.106 723.752 382.631 725.2 382.798H804.914C806.862 382.833 808.809 382.681 810.727 382.343C811.586 382.166 812.4 381.816 813.12 381.314C813.784 380.843 814.325 380.22 814.699 379.496C815.146 378.644 815.446 377.721 815.584 376.769C815.789 375.543 815.885 374.302 815.871 373.06V340.259H805.919ZM700.654 373.156H669.864V359.854H696.181C697.199 359.76 698.223 359.941 699.147 360.38C699.651 360.771 700.047 361.283 700.298 361.869C700.549 362.455 700.647 363.095 700.583 363.729L700.654 373.156ZM743.119 370.165C743.15 370.802 743.044 371.439 742.808 372.031C742.587 372.367 742.285 372.642 741.929 372.83C741.574 373.018 741.177 373.114 740.774 373.108H730.152C729.847 373.049 729.556 372.936 729.291 372.773C729.092 372.649 728.927 372.476 728.813 372.271C728.679 372.001 728.598 371.709 728.573 371.409C728.545 370.995 728.545 370.58 728.573 370.165V362.844C728.573 360.93 729.435 359.925 731.133 359.758H741.396C741.947 359.955 742.407 360.346 742.688 360.859C743.048 361.456 743.215 362.149 743.167 362.844L743.119 370.165Z" fill="#5B6670"/>
<path d="M173.71 382.798V333.943H203.758V341.264H182.586V354.447H200.552V361.624H182.586V375.285H203.973V382.798H173.71Z" fill="#5B6670"/>
<path d="M224.261 382.798V341.264H210.936V333.943H246.414V341.264H233.209V382.798H224.261Z" fill="#5B6670"/>
<path d="M254.859 382.798V333.943H284.908V341.264H263.735V354.447H281.702V361.624H263.735V375.285H285.099V382.798H254.859Z" fill="#5B6670"/>
<path d="M294.453 382.798V333.943H311.008C313.552 333.886 316.092 334.151 318.568 334.733C320.497 335.226 322.299 336.123 323.855 337.364C325.839 338.895 327.355 340.951 328.233 343.298C329.208 346.39 329.645 349.627 329.525 352.868V363.801C329.644 367.042 329.207 370.278 328.233 373.371C327.358 375.733 325.842 377.804 323.855 379.352C320.077 381.902 315.555 383.114 311.008 382.798H294.453ZM303.401 375.62H309.429C313.568 375.62 316.391 374.783 317.898 373.228C319.406 371.673 320.554 367.988 320.554 363.251V353.681C320.554 348.896 319.669 345.666 317.898 343.728C316.128 341.79 313.568 341.336 309.429 341.336H303.401V375.62Z" fill="#5B6670"/>
<path d="M365.291 373.084H346.894L343.76 382.654H334.047L351.75 333.895H360.411L377.995 382.798H368.425L365.291 373.084ZM363.114 365.907L356.057 344.518L348.88 365.835L363.114 365.907Z" fill="#5B6670"/>
<path d="M382.971 382.798V333.943H391.918V375.405H413.234V382.798H382.971Z" fill="#5B6670"/>
</svg>
