<svg width="27" height="41" viewBox="0 0 27 41" fill="none" xmlns="http://www.w3.org/2000/svg">
<path d="M18.562 12.738C18.5461 12.8703 18.5301 13.0026 18.5061 13.1389C17.7979 17.9539 16.1651 22.5854 13.6979 26.7767H1.46772C3.66596 24.5321 12.359 18.2152 12.353 18.2152C12.2311 18.2152 3.94773 22.9408 0.392578 25.1373V17.9447C5.90803 14.6855 12.1622 12.8934 18.562 12.738Z" fill="#6DB49B"/>
<path d="M26.6754 11.4754C26.6135 12.1849 26.5415 12.8783 26.4556 13.5196C26.2378 15.2058 25.9263 16.8785 25.5223 18.5298C24.827 21.3611 23.8599 24.1182 22.6346 26.7626H15.7562C17.1902 24.1737 18.3265 21.4299 19.1434 18.5839C19.632 16.8854 20.0066 15.1561 20.2645 13.4074C20.2905 13.2611 20.3105 13.1087 20.3305 12.9404L20.5703 10.8962L18.5219 10.9523C13.2136 11.0789 7.98581 12.2829 3.15423 14.4916C2.21499 14.9204 1.29639 15.3834 0.398438 15.8804V8.98032C0.512346 8.92421 0.624255 8.8741 0.740162 8.822C6.37956 6.26404 12.4813 4.89045 18.6698 4.78577H19.5511C21.974 4.78599 24.3931 4.97966 26.7853 5.36495C26.8844 7.40195 26.8477 9.44331 26.6754 11.4754Z" fill="#6DB49B"/>
<path d="M26.9993 3.20654V3.58131C24.5344 3.18308 22.0419 2.98204 19.5453 2.98008H18.628C12.343 3.10011 6.14454 4.47141 0.392578 7.01431V3.20654C0.392578 2.35612 0.729448 1.54052 1.32908 0.939176C1.92872 0.337833 2.74201 2.50534e-06 3.59002 2.50534e-06H23.7979C24.2181 -0.000524277 24.6343 0.0820266 25.0227 0.242934C25.4111 0.403842 25.764 0.639951 26.0614 0.937758C26.3587 1.23557 26.5946 1.58923 26.7555 1.97853C26.9165 2.36782 26.9993 2.78512 26.9993 3.20654Z" fill="#6DB49B"/>
<path d="M24.5996 26.7686C25.5731 24.5551 26.3748 22.2697 26.9977 19.9326V26.7686H24.5996Z" fill="#6DB49B"/>
<path d="M12.5771 28.5563C11.621 29.9868 10.5695 31.3507 9.42957 32.6386C8.05867 34.1938 6.16418 35.785 4.04987 37.2921C3.73413 36.0315 3.15259 33.6968 3.15259 33.316C3.15259 33.304 3.15259 33.2939 3.15259 33.2839L1.95355 38.709C1.43397 39.047 0.91039 39.377 0.382812 39.699V28.5563H12.5771Z" fill="#B5A48C"/>
<path d="M17.3828 30.8429L20.6642 30.5644C19.1426 33.1843 17.366 35.6466 15.3605 37.9154C14.4199 38.9842 13.4333 39.9996 12.4008 40.9616H1.73535C2.18299 40.683 2.62864 40.4024 3.07028 40.1138C5.00074 39.9756 8.23615 39.7531 8.65382 39.7611L5.38243 38.5226C7.46677 37.0175 9.35326 35.4143 10.7621 33.823C12.2188 32.1798 13.5369 30.4182 14.703 28.5563H21.4816C19.8229 29.5002 17.7046 30.6946 17.3828 30.8429Z" fill="#B5A48C"/>
<path d="M26.9993 28.5563V40.9616H14.959C15.5492 40.359 16.1274 39.7377 16.6936 39.0978C18.9055 36.5976 20.848 33.8703 22.489 30.9612C23.3143 31.9532 25.0449 34.0535 25.1209 34.312L23.7879 28.5563H26.9993Z" fill="#B5A48C"/>
</svg>
